<svg id="Layer_2" data-name="Layer 2" xmlns="http://www.w3.org/2000/svg" xmlns:xlink="http://www.w3.org/1999/xlink" viewBox="0 0 300.32 76.79">
  <defs>
    <clipPath id="clip-path" transform="translate(-149.02 -92.15)">
      <path d="M157.85,92.15a8.74,8.74,0,1,0,6.27,2.56A8.57,8.57,0,0,0,157.85,92.15Z" fill="#231f20"/>
    </clipPath>
  </defs>
  <path d="M157.85,92.15a8.74,8.74,0,1,0,6.27,2.56A8.57,8.57,0,0,0,157.85,92.15Z" transform="translate(-149.02 -92.15)" fill="#231f20"/>
  <rect x="1.3" y="21.98" width="15.06" height="54" fill="#231f20"/>
  <path d="M230.22,107.16Q220.19,98,201.41,98H176.62v70.16h24q20.07,0,29.86-9.54t9.79-25.89Q240.26,116.35,230.22,107.16Zm-11.5,41.71q-5.76,5.41-16.51,5.42h-9.93V111.63H201q11.94,0,17.71,5.57t5.78,15.91Q224.5,143.45,218.72,148.87Z" transform="translate(-149.02 -92.15)" fill="#231f20"/>
  <path d="M272.73,113.23q-12.3,0-20.43,8.08a28.18,28.18,0,0,0,0,39.6q8.13,8,20.43,8t20.42-8a28.18,28.18,0,0,0,0-39.6Q285,113.24,272.73,113.23Zm9.63,38.7a13.24,13.24,0,0,1-19.27,0,15.49,15.49,0,0,1-3.76-10.79,15.65,15.65,0,0,1,3.76-10.84,13.11,13.11,0,0,1,19.27,0,15.66,15.66,0,0,1,3.77,10.84A15.49,15.49,0,0,1,282.36,151.93Z" transform="translate(-149.02 -92.15)" fill="#231f20"/>
  <path d="M333.3,155.59a14.54,14.54,0,0,1-10-3.81q-4.26-3.83-4.26-10.69t4.26-10.74a14.66,14.66,0,0,1,10.19-3.87,18,18,0,0,1,7.48,1.71,17.74,17.74,0,0,1,6.37,4.82l7.83-10.24a29.78,29.78,0,0,0-10.48-7.13,31.55,31.55,0,0,0-11.8-2.41A28.83,28.83,0,0,0,312.77,121q-8.47,7.79-8.48,20.18t8.39,20.07a29.25,29.25,0,0,0,20.52,7.68q12.15,0,22.59-10.84l-8.94-10Q340.83,155.59,333.3,155.59Z" transform="translate(-149.02 -92.15)" fill="#231f20"/>
  <path d="M381.38,155.79a5,5,0,0,1-3.81-1.76,6.93,6.93,0,0,1-1.61-4.86V125.88H389V114.14H376V98H360.8v51.89q0,8.83,5.37,13.95a18.36,18.36,0,0,0,13.15,5.12q7.79,0,14.81-6.42L388.51,152A8.72,8.72,0,0,1,381.38,155.79Z" transform="translate(-149.02 -92.15)" fill="#231f20"/>
  <path d="M422.27,168.47V156.18h-.34A12.14,12.14,0,0,1,412.8,152a15.14,15.14,0,0,1-3.92-10.79,16.06,16.06,0,0,1,3.82-11,11.72,11.72,0,0,1,9.13-4.37,11.09,11.09,0,0,1,8.93,4.42,16.78,16.78,0,0,1,3.62,11c0,.15,0,.3,0,.45h7.08v2.59a24.28,24.28,0,0,1,7.48-2.88l.4-.08V114.14H434.18v4.51A20.52,20.52,0,0,0,420,113.23a25.88,25.88,0,0,0-18.37,7.53q-7.92,7.53-7.92,20.13t7.72,20.32a24.83,24.83,0,0,0,20.82,7.57Z" transform="translate(-149.02 -92.15)" fill="#231f20"/>
  <path d="M424.28,143.75v24.72l25.05-25.05a22.66,22.66,0,0,0-9.89,4.75v-4.42Z" transform="translate(-149.02 -92.15)" fill="#231f20"/>
  <g>
    <path d="M157.85,92.15a8.74,8.74,0,1,0,6.27,2.56A8.57,8.57,0,0,0,157.85,92.15Z" transform="translate(-149.02 -92.15)" fill="#231f20"/>
    <g clip-path="url(#clip-path)">
      <rect y="17.33" width="17.67" height="0.33" fill="#231f20"/>
      <rect y="16.95" width="17.67" height="0.39" fill="#231f20"/>
      <rect y="16.56" width="17.67" height="0.39" fill="#231f20"/>
      <rect y="16.18" width="17.67" height="0.39" fill="#231f20"/>
      <rect y="15.79" width="17.67" height="0.39" fill="#231f20"/>
      <rect y="15.41" width="17.67" height="0.39" fill="#231f20"/>
      <rect y="15.02" width="17.67" height="0.39" fill="#231f20"/>
      <rect y="14.63" width="17.67" height="0.39" fill="#231f20"/>
      <rect width="17.67" height="14.63" fill="#231f20"/>
    </g>
  </g>
  <path d="M157.85,92.15a8.74,8.74,0,1,0,6.27,2.56A8.57,8.57,0,0,0,157.85,92.15Z" transform="translate(-149.02 -92.15)" fill="#231f20"/>
</svg>
